<?xml version="1.0"?>
<svg version="1.1" xmlns="http://www.w3.org/2000/svg" width="400" height="50" style=""><path fill="#258ed9" d="M16.04248046875,20.12939453125q0-0.205078125,0.196533203125-0.3076171875t0.42724609375-0.15380859375t0.418701171875-0.05126953125l0.18798828125,0q0.59814453125,0,0.863037109375,0.2734375t0.640869140625,0.70068359375q2.5634765625,3.70849609375,4.69970703125,7.630615234375t4.11865234375,7.938232421875q0.1708984375-4.6826171875,0.350341796875-9.425048828125t0.452880859375-9.407958984375q0-0.205078125,0.196533203125-0.341796875t0.4443359375-0.205078125t0.504150390625-0.08544921875t0.39306640625-0.01708984375q0.205078125,0,0.452880859375,0.01708984375t0.49560546875,0.1025390625t0.41015625,0.205078125t0.162353515625,0.32470703125q0.068359375,0.73486328125,0.076904296875,1.478271484375t0.008544921875,1.478271484375q0,5.5029296875-0.2392578125,10.78369140625t-0.2392578125,10.6640625l0,1.23046875q0,0.068359375-0.068359375,0.205078125q0.0341796875,0.13671875,0.1025390625,0.299072265625t0.068359375,0.230712890625q0,0.2734375-0.281982421875,0.41015625t-0.615234375,0.213623046875t-0.589599609375,0.076904296875t-0.18798828125,0q-0.87158203125,0-1.4697265625-0.478515625t-0.59814453125-1.14501953125q-1.2646484375-2.8369140625-2.520751953125-5.631103515625t-2.623291015625-5.562744140625q-0.87158203125-1.7431640625-1.751708984375-3.494873046875t-1.888427734375-3.392333984375q0.0341796875,0.0341796875,0.0341796875,0.1025390625q0.1708984375,1.708984375,0.367431640625,3.409423828125t0.299072265625,3.409423828125q0.068359375,1.4697265625,0.15380859375,2.9736328125t0.2734375,2.9736328125q0,0.56396484375-0.350341796875,0.7177734375t-0.811767578125,0.15380859375q-0.39306640625,0-0.743408203125-0.1025390625t-0.418701171875-0.5126953125q0-1.572265625-0.11962890625-3.341064453125t-0.22216796875-3.563232421875q-0.1708984375-2.37548828125-0.452880859375-4.827880859375t-0.281982421875-4.793701171875q0-0.1025390625,0.01708984375-0.213623046875t0.01708984375-0.247802734375q-0.1025390625-0.1708984375-0.230712890625-0.35888671875t-0.128173828125-0.341796875z M35.023657226562,37.919921875q0-0.76904296875,0.076904296875-1.837158203125t0.350341796875-1.768798828125q0.1025390625-0.2392578125,0.435791015625-0.469970703125t0.70068359375-0.281982421875t0.6494140625,0.08544921875t0.281982421875,0.59814453125q0,0.80322265625-0.0341796875,2.03369140625l0,0.52978515625q0,0.93994140625,0.08544921875,1.79443359375q0.11962890625,1.1279296875,0.5126953125,1.89697265625q0.341796875,0.70068359375,1.07666015625,0.70068359375l0.13671875,0q1.00830078125-0.068359375,1.48681640625-0.83740234375t0.6494140625-1.82861328125q0.15380859375-0.97412109375,0.15380859375-2.05078125l0-0.205078125q-0.01708984375-1.1962890625-0.01708984375-2.10205078125q0-3.60595703125-0.2392578125-7.22900390625t-0.2392578125-7.26318359375q0-0.59814453125-0.05126953125-1.298828125q-0.01708984375-0.25634765625-0.01708984375-0.5126953125q0-0.41015625,0.05126953125-0.7861328125q0.08544921875-0.59814453125,0.435791015625-0.999755859375t1.187744140625-0.401611328125q0.46142578125,0,0.845947265625,0.111083984375t0.692138671875,0.452880859375q0.39306640625,4.443359375,0.6494140625,9.031982421875t0.25634765625,9.066162109375q0,1.5380859375-0.25634765625,3.09326171875t-0.93994140625,2.802734375t-1.89697265625,2.03369140625t-3.09326171875,0.7861328125q-1.1279296875,0-1.8798828125-0.401611328125t-1.204833984375-1.102294921875t-0.6494140625-1.632080078125t-0.196533203125-2.008056640625z M55.298022460937,39.2529296875q0-0.59814453125,0.41015625-0.760498046875t0.888671875-0.162353515625q0.83740234375,0,1.41845703125,0.751953125t1.102294921875,1.649169921875t1.033935546875,1.649169921875t1.21337890625,0.751953125q0.52978515625,0,0.965576171875-0.264892578125t0.751953125-0.66650390625t0.487060546875-0.90576171875t0.1708984375-0.999755859375q0-1.298828125-0.521240234375-2.68310546875t-1.3330078125-2.85400390625t-1.717529296875-3.0078125t-1.708984375-3.12744140625t-1.3330078125-3.238525390625t-0.52978515625-3.323974609375q0-2.51220703125,1.50390625-3.896484375t3.96484375-1.38427734375q0.83740234375,0,1.69189453125,0.2392578125t1.572265625,0.7177734375t1.170654296875,1.17919921875t0.452880859375,1.640625q0,0.3076171875-0.452880859375,0.401611328125t-0.657958984375,0.093994140625q-0.3076171875,0-0.66650390625-0.076904296875t-0.46142578125-0.418701171875t-0.29052734375-0.7861328125t-0.469970703125-0.828857421875t-0.66650390625-0.66650390625t-0.845947265625-0.281982421875q-0.76904296875,0-1.307373046875,0.316162109375t-0.87158203125,0.845947265625t-0.49560546875,1.187744140625t-0.162353515625,1.358642578125q0,1.640625,0.56396484375,3.306884765625t1.4013671875,3.3154296875t1.820068359375,3.255615234375t1.820068359375,3.12744140625t1.4013671875,2.9736328125t0.56396484375,2.75146484375q0,1.162109375-0.546875,1.96533203125t-1.38427734375,1.307373046875t-1.854248046875,0.73486328125t-1.990966796875,0.230712890625q-1.04248046875,0-2.13623046875-0.418701171875t-1.96533203125-1.153564453125t-1.435546875-1.717529296875t-0.56396484375-2.127685546875z M69.63076171875,18.18115234375q0-0.2392578125,0.333251953125-0.367431640625t0.435791015625-0.128173828125l0.63232421875-0.1025390625q0.63232421875-0.1025390625,1.28173828125-0.179443359375t1.2646484375-0.145263671875q2.17041015625-0.2734375,4.3408203125-0.538330078125t4.375-0.264892578125q0.1708984375,0,0.469970703125,0.01708984375t0.59814453125,0.093994140625t0.5126953125,0.213623046875t0.213623046875,0.3759765625q0,0.1708984375-0.162353515625,0.299072265625t-0.384521484375,0.196533203125t-0.452880859375,0.08544921875t-0.367431640625,0.01708984375l-0.299072265625,0t-0.299072265625-0.068359375q-0.90576171875,0-1.785888671875,0.08544921875t-1.785888671875,0.15380859375q0.2392578125,0.2734375,0.25634765625,0.76904296875t0.0341796875,0.8544921875q0,6.0498046875,0.08544921875,12.03125t0.15380859375,12.08251953125l0,0.0341796875q-0.56396484375,0.49560546875-0.965576171875,0.63232421875t-0.811767578125,0.13671875q-0.39306640625,0-0.794677734375-0.145263671875t-0.965576171875-0.623779296875l0-0.0341796875l0.13671875-13.41552734375q0-1.3330078125-0.0341796875-2.939453125t-0.0341796875-3.255615234375t0.05126953125-3.187255859375t0.2734375-2.68310546875q-1.00830078125,0.1025390625-2.13623046875,0.3076171875q-0.97412109375,0.1708984375-1.86279296875,0.1708984375l-0.3076171875,0q-0.068359375,0-0.401611328125,0.01708984375t-0.68359375-0.01708984375t-0.63232421875-0.13671875t-0.281982421875-0.341796875z M86.561157226562,26.07666015625q0-0.66650390625,0.042724609375-1.956787109375t0.128173828125-2.691650390625t0.22216796875-2.623291015625t0.39306640625-1.751708984375q0.13671875-0.2734375,0.418701171875-0.367431640625t0.555419921875-0.093994140625q0.1708984375,0,0.572509765625,0.093994140625t0.401611328125,0.367431640625q0,0.42724609375-0.1025390625,1.614990234375t-0.18798828125,2.725830078125t-0.11962890625,3.19580078125l0,0.73486328125q0,1.24755859375,0.08544921875,2.34130859375q0.11962890625,1.4013671875,0.452880859375,2.30712890625t0.999755859375,0.90576171875q0.90576171875,0,1.69189453125-0.538330078125t1.435546875-1.4013671875t1.170654296875-1.93115234375t0.888671875-2.10205078125t0.615234375-1.905517578125t0.350341796875-1.3671875q0.1025390625-0.56396484375,0.179443359375-1.50390625t0.247802734375-1.845703125t0.606689453125-1.572265625t1.273193359375-0.66650390625q0.49560546875,0,0.948486328125,0.1708984375t0.589599609375,0.73486328125q-0.2734375,1.04248046875-0.46142578125,2.896728515625t-0.299072265625,3.887939453125t-0.162353515625,3.939208984375t-0.05126953125,3.101806640625q0,1.3330078125,0.0341796875,3.255615234375t0.11962890625,3.973388671875t0.196533203125,3.990478515625t0.247802734375,3.238525390625q0.13671875,0.2734375,0.13671875,0.63232421875q0,0.42724609375-0.1708984375,0.66650390625t-0.469970703125,0.35888671875t-0.6494140625,0.15380859375t-0.675048828125,0.0341796875q-0.49560546875,0-1.102294921875-0.1708984375t-0.743408203125-0.70068359375q-0.1708984375-0.63232421875-0.281982421875-1.666259765625t-0.162353515625-2.255859375t-0.08544921875-2.554931640625t-0.0341796875-2.554931640625t0.01708984375-2.27294921875t0.01708984375-1.717529296875q0-1.298828125,0.05126953125-2.554931640625t0.11962890625-2.554931640625q-0.42724609375,0.87158203125-0.999755859375,1.768798828125t-1.307373046875,1.632080078125t-1.640625,1.204833984375t-1.96533203125,0.469970703125q-1.3671875,0-2.0849609375-0.73486328125t-1.04248046875-1.820068359375t-0.367431640625-2.30712890625t-0.042724609375-2.213134765625z M103.95297851563,33.7158203125l0-2.7001953125q0-2.802734375,0.093994140625-5.562744140625t0.162353515625-5.562744140625q0-0.52978515625-0.0341796875-1.17919921875q-0.01708984375-0.18798828125-0.01708984375-0.35888671875q0-0.42724609375,0.068359375-0.83740234375q0.08544921875-0.546875,0.418701171875-0.93994140625t1.102294921875-0.39306640625q0.63232421875,0,0.965576171875,0.13671875t0.469970703125,0.401611328125t0.15380859375,0.66650390625t0.01708984375,0.931396484375q0,2.8369140625-0.068359375,5.69091796875q-0.05126953125,1.89697265625-0.05126953125,3.7939453125q0,0.95703125,0.01708984375,1.9140625q0.0341796875,2.8369140625,0.264892578125,5.673828125t0.777587890625,5.60546875q1.708984375-0.068359375,3.41796875-0.1708984375t3.41796875-0.1025390625q0.1708984375,0,0.487060546875,0.0341796875t0.63232421875,0.11962890625t0.538330078125,0.22216796875t0.22216796875,0.39306640625q0,0.1708984375-0.15380859375,0.29052734375t-0.29052734375,0.18798828125l-0.0341796875,0q-0.2734375,0.13671875-1.085205078125,0.264892578125t-1.845703125,0.196533203125t-2.17041015625,0.11962890625t-2.13623046875,0.08544921875t-1.734619140625,0.05126953125t-0.90576171875,0.01708984375l-0.15380859375,0q-0.41015625,0-0.9228515625-0.13671875q-0.615234375-0.1708984375-0.76904296875-0.66650390625q-0.3076171875-1.2646484375-0.487060546875-2.623291015625t-0.2734375-2.760009765625t-0.093994140625-2.802734375z M119.46491699219,40.654296875q0.0341796875-0.7177734375,0.0341796875-1.4013671875q0-2.47802734375,0.179443359375-4.93896484375t0.247802734375-4.93896484375q0.1025390625-2.8369140625,0.18798828125-5.62255859375t0.341796875-5.60546875q0.068359375-0.70068359375,0.401611328125-0.914306640625t0.999755859375-0.213623046875q0.3076171875,0,0.8203125,0.11962890625t0.5126953125,0.5810546875q0.2392578125,0.0341796875,0.478515625,0.0341796875q0.35888671875,0,0.73486328125-0.068359375q0.615234375-0.1025390625,1.256103515625-0.230712890625t1.273193359375-0.247802734375t1.21337890625-0.11962890625q0.13671875,0,0.384521484375,0.01708984375t0.49560546875,0.1025390625t0.418701171875,0.213623046875t0.1708984375,0.333251953125t-0.401611328125,0.367431640625t-1.051025390625,0.281982421875t-1.4013671875,0.205078125t-1.4697265625,0.145263671875t-1.273193359375,0.093994140625t-0.794677734375,0.0341796875l-0.0341796875,6.42578125l0.0341796875,3.19580078125q0.52978515625,0,1.58935546875-0.0341796875q0.42724609375-0.01708984375,0.8544921875-0.01708984375q0.6494140625,0,1.3330078125,0.0341796875q1.1279296875,0.05126953125,2.03369140625,0.205078125t1.14501953125,0.546875q0,0.2392578125-0.247802734375,0.384521484375t-0.555419921875,0.213623046875t-0.623779296875,0.08544921875t-0.452880859375,0.01708984375q-1.2646484375,0-2.54638671875-0.05126953125t-2.529296875-0.205078125q0,2.10205078125-0.111083984375,4.169921875t-0.111083984375,4.169921875q0,0.90576171875,0.01708984375,1.785888671875t0.205078125,1.751708984375q0.46142578125-0.0341796875,0.999755859375-0.08544921875t1.09375-0.128173828125t1.068115234375-0.128173828125t0.888671875-0.05126953125q0.205078125,0,0.555419921875,0.05126953125t0.7177734375,0.1708984375t0.63232421875,0.299072265625t0.264892578125,0.418701171875q0,0.2734375-0.504150390625,0.487060546875t-1.290283203125,0.341796875t-1.717529296875,0.179443359375t-1.802978515625,0.068359375t-1.572265625,0.01708984375l-0.9912109375,0q-0.93994140625,0-1.375732421875-0.350341796875t-0.606689453125-0.914306640625q-0.13671875-0.46142578125-0.11962890625-1.04248046875l0-0.2392578125z M133.67802734375,39.2529296875q0-0.59814453125,0.41015625-0.760498046875t0.888671875-0.162353515625q0.83740234375,0,1.41845703125,0.751953125t1.102294921875,1.649169921875t1.033935546875,1.649169921875t1.21337890625,0.751953125q0.52978515625,0,0.965576171875-0.264892578125t0.751953125-0.66650390625t0.487060546875-0.90576171875t0.1708984375-0.999755859375q0-1.298828125-0.521240234375-2.68310546875t-1.3330078125-2.85400390625t-1.717529296875-3.0078125t-1.708984375-3.12744140625t-1.3330078125-3.238525390625t-0.52978515625-3.323974609375q0-2.51220703125,1.50390625-3.896484375t3.96484375-1.38427734375q0.83740234375,0,1.69189453125,0.2392578125t1.572265625,0.7177734375t1.170654296875,1.17919921875t0.452880859375,1.640625q0,0.3076171875-0.452880859375,0.401611328125t-0.657958984375,0.093994140625q-0.3076171875,0-0.66650390625-0.076904296875t-0.46142578125-0.418701171875t-0.29052734375-0.7861328125t-0.469970703125-0.828857421875t-0.66650390625-0.66650390625t-0.845947265625-0.281982421875q-0.76904296875,0-1.307373046875,0.316162109375t-0.87158203125,0.845947265625t-0.49560546875,1.187744140625t-0.162353515625,1.358642578125q0,1.640625,0.56396484375,3.306884765625t1.4013671875,3.3154296875t1.820068359375,3.255615234375t1.820068359375,3.12744140625t1.4013671875,2.9736328125t0.56396484375,2.75146484375q0,1.162109375-0.546875,1.96533203125t-1.38427734375,1.307373046875t-1.854248046875,0.73486328125t-1.990966796875,0.230712890625q-1.04248046875,0-2.13623046875-0.418701171875t-1.96533203125-1.153564453125t-1.435546875-1.717529296875t-0.56396484375-2.127685546875z"/><path fill="#" d=""/></svg>
